<svg width="40" height="40" viewBox="0 0 40 40" fill="none" xmlns="http://www.w3.org/2000/svg">
  <rect width="40" height="40" rx="20" fill="#FF7A00"/>
  <path d="M20 10C14.4772 10 10 14.4772 10 20C10 25.5228 14.4772 30 20 30C25.5228 30 30 25.5228 30 20C30 14.4772 25.5228 10 20 10ZM20 28C15.5817 28 12 24.4183 12 20C12 15.5817 15.5817 12 20 12C24.4183 12 28 15.5817 28 20C28 24.4183 24.4183 28 20 28Z" fill="white"/>
  <path d="M20 14C16.6863 14 14 16.6863 14 20C14 23.3137 16.6863 26 20 26C23.3137 26 26 23.3137 26 20C26 16.6863 23.3137 14 20 14ZM20 24C17.7909 24 16 22.2091 16 20C16 17.7909 17.7909 16 20 16C22.2091 16 24 17.7909 24 20C24 22.2091 22.2091 24 20 24Z" fill="white"/>
  <circle cx="20" cy="20" r="4" fill="white"/>
</svg> 